<svg xmlns="http://www.w3.org/2000/svg" width="90.47" height="93.694" viewBox="0 0 90.47 93.694">
  <g id="Desktop_120_Servings_Total_Seal" data-name="Desktop / 120 Servings Total Seal" transform="translate(-86.235 -570.518)">
    <text id="_" data-name="👏🏼" transform="translate(116.964 628.806)" fill="#707070" font-size="28" font-family="AppleColorEmoji, Apple Color Emoji"><tspan x="0" y="0">👏🏼</tspan></text>
    <g id="Group_701" data-name="Group 701" transform="translate(86.235 570.518)">
      <g id="Group_700" data-name="Group 700">
        <path id="Path_924" data-name="Path 924" d="M2951.477,322.338l-1.217-.774,4.337-6.828-.046-.03-2.724.035.739-1.163,2.842-.037,1.182.751Z" transform="translate(-2885.034 -306.463)" fill="#181a1a"/>
        <path id="Path_925" data-name="Path 925" d="M2957.314,327.25l4.632-.273c1.487-.1,2.266-.208,2.836-.827a1.555,1.555,0,0,0-.206-2.289,1.58,1.58,0,0,0-2.385.1l-1.009-.929a2.861,2.861,0,0,1,4.227-.039,2.8,2.8,0,0,1,.407,4.048c-.722.783-1.658,1.065-4.135,1.18l-2.734.175-.048.051,3.153,2.905-.834.907-4.611-4.247Z" transform="translate(-2888.358 -310.937)" fill="#181a1a"/>
        <path id="Path_926" data-name="Path 926" d="M2973.219,337.929c2.527-1.8,4.744-1.782,6.014,0s.562,3.884-1.958,5.683c-2.539,1.813-4.748,1.807-6.025.018S2970.685,339.739,2973.219,337.929Zm3.226,4.518c1.93-1.378,2.539-2.773,1.8-3.813s-2.26-.917-4.192.457-2.539,2.766-1.79,3.814S2974.508,343.83,2976.446,342.447Z" transform="translate(-2895.7 -318.53)" fill="#181a1a"/>
        <path id="Path_927" data-name="Path 927" d="M2987.369,365.707a1.379,1.379,0,0,0,.428-1.666c-.262-.746-.829-1.178-1.345-.991-.458.157-.595.565-.509,1.369l.132,1.158c.151,1.338-.224,2.151-1.176,2.487-1.22.43-2.482-.393-3.056-2.022-.533-1.514-.211-2.743.905-3.382l.64,1.2a1.389,1.389,0,0,0-.491,1.8c.3.86.907,1.274,1.43,1.09.421-.149.6-.554.521-1.254l-.153-1.229c-.164-1.363.269-2.167,1.225-2.5,1.194-.421,2.377.376,2.914,1.9a2.48,2.48,0,0,1-.835,3.16Z" transform="translate(-2901.439 -331.654)" fill="#181a1a"/>
        <path id="Path_928" data-name="Path 928" d="M2988.741,376.973c2.171-.332,3.87.736,4.171,2.7.244,1.6-.52,3.281-3.074,3.672l-.488.074-.768-5.024a1.964,1.964,0,0,0-1.819,2.331,1.618,1.618,0,0,0,1.257,1.474l-.035,1.338a2.836,2.836,0,0,1-2.36-2.652C2985.307,378.807,2986.546,377.309,2988.741,376.973Zm1.434,4.945a1.765,1.765,0,0,0,1.6-2.058,1.92,1.92,0,0,0-2.163-1.614Z" transform="translate(-2903.526 -339.645)" fill="#181a1a"/>
        <path id="Path_929" data-name="Path 929" d="M2994.023,394.159,2994,395.5l-1.134-.016v.074a1.861,1.861,0,0,1,1.216,1.833,5.629,5.629,0,0,1-.042.59l-1.331-.019a3.314,3.314,0,0,0,.1-.725,1.608,1.608,0,0,0-1.586-1.731l-4.364-.062.02-1.391Z" transform="translate(-2904.197 -348.622)" fill="#181a1a"/>
        <path id="Path_930" data-name="Path 930" d="M2985.493,408.537l.248-1.468,7.478-1.374-.248,1.473-5.724.872-.012.074,5.123,2.692-.247,1.473Z" transform="translate(-2903.482 -354.715)" fill="#181a1a"/>
        <path id="Path_931" data-name="Path 931" d="M2990.105,421.114l-.413,1.329-6.825-2.124.414-1.329Zm1.9.4a.881.881,0,1,1-1.052.594A.861.861,0,0,1,2992,421.519Z" transform="translate(-2902.107 -361.677)" fill="#181a1a"/>
        <path id="Path_932" data-name="Path 932" d="M2978.583,426.206l.6-1.257,6.458,3.062-.573,1.207-1.051-.5-.038.08a2.127,2.127,0,0,1,.232,2.442c-.626,1.321-1.879,1.8-3.477,1.045l-4.108-1.948.6-1.257,3.956,1.877a1.465,1.465,0,0,0,2.147-.661,1.62,1.62,0,0,0-.905-2.272Z" transform="translate(-2898.838 -364.797)" fill="#181a1a"/>
        <path id="Path_933" data-name="Path 933" d="M2968.762,437.179l-.321,1.252a1.94,1.94,0,0,0-1.906.893,1.567,1.567,0,0,0,.192,2.422l1.125.841.053-.071a2.15,2.15,0,0,1,.283-2.373c1.012-1.353,2.762-1.665,4.587-.3s2.153,3.2,1.119,4.578a2.172,2.172,0,0,1-2.242.908l-.062.082.928.694-.817,1.091-5.849-4.375c-1.472-1.1-1.3-2.725-.207-4.182A3.024,3.024,0,0,1,2968.762,437.179Zm.938,6.808c1.158.866,2.342.938,3.069-.034.753-1.006.278-2.151-.821-2.973-1.125-.841-2.276-.894-3.02.1C2968.21,442.041,2968.519,443.1,2969.7,443.987Z" transform="translate(-2892.642 -371.167)" fill="#181a1a"/>
        <path id="Path_934" data-name="Path 934" d="M2962.15,458.8a1.38,1.38,0,0,0,1.7-.256c.583-.534.76-1.224.386-1.625-.323-.36-.752-.327-1.458.066l-1.014.573c-1.173.662-2.068.634-2.748-.111-.872-.956-.607-2.438.667-3.6,1.185-1.082,2.441-1.266,3.465-.489l-.854,1.058a1.389,1.389,0,0,0-1.849.253c-.673.615-.818,1.332-.444,1.741.3.331.745.34,1.357-.011l1.072-.62c1.19-.684,2.1-.6,2.782.149.853.934.583,2.334-.609,3.423a2.479,2.479,0,0,1-3.234.466Z" transform="translate(-2889.353 -379.421)" fill="#181a1a"/>
        <path id="Path_935" data-name="Path 935" d="M2945.5,472.236l1.283-.707-1.9-3.444c-.389-.7-.815-.64-1.21-.422a2.2,2.2,0,0,0-.4.289l-.775-.886a2.651,2.651,0,0,1,.719-.566,1.866,1.866,0,0,1,2.744.662l2.035,3.7.917-.5.538.978-.916.5.825,1.5-1.218.67-.825-1.5-1.283.706Z" transform="translate(-2880.976 -386.38)" fill="#181a1a"/>
        <path id="Path_936" data-name="Path 936" d="M2936.631,472.905c.753,2.091.014,3.923-1.879,4.606s-3.632-.258-4.384-2.35-.01-3.91,1.884-4.592S2935.882,470.828,2936.631,472.905Zm-4.942,1.785c.464,1.286,1.435,2.172,2.665,1.729s1.421-1.747.958-3.033-1.432-2.163-2.669-1.717S2931.225,473.4,2931.689,474.69Z" transform="translate(-2874.467 -388.569)" fill="#181a1a"/>
        <path id="Path_937" data-name="Path 937" d="M2919.747,480.7l1.439-.268-.717-3.863c-.147-.791-.572-.863-1.015-.78a2.318,2.318,0,0,0-.469.148l-.456-1.083a2.668,2.668,0,0,1,.86-.311,1.865,1.865,0,0,1,2.4,1.489l.771,4.147,1.028-.192.2,1.1-1.028.192.313,1.682-1.368.253-.312-1.682-1.44.267Z" transform="translate(-2868.419 -390.736)" fill="#181a1a"/>
        <path id="Path_938" data-name="Path 938" d="M2910.539,477.414c.048,1.624-1.328,2.018-2.677,2.216-1.28.186-1.8.192-1.786.7v.032a1.189,1.189,0,0,0,1.4,1.24,1.669,1.669,0,0,0,1.631-1.045l1.316.26a2.889,2.889,0,0,1-2.9,1.91c-1.135.033-2.785-.333-2.847-2.412l-.139-4.745,1.359-.04.029.977.056,0a2.234,2.234,0,0,1,2.079-1.2A2.17,2.17,0,0,1,2910.539,477.414Zm-4.533.693.027.921a5.427,5.427,0,0,1,1.71-.433c.8-.13,1.454-.415,1.432-1.16-.02-.688-.6-1.025-1.385-1A1.677,1.677,0,0,0,2906.006,478.107Z" transform="translate(-2861.094 -391.165)" fill="#181a1a"/>
        <path id="Path_939" data-name="Path 939" d="M2897.315,475.148l1.385.144-.986,9.484-1.385-.144Z" transform="translate(-2856.796 -391.082)" fill="#181a1a"/>
        <path id="Path_940" data-name="Path 940" d="M2888.9,476.717l1.264.246-1.177,6.685-1.5-.292Zm1.91-1.562a.93.93,0,1,1-.735-1.09A.932.932,0,0,1,2890.808,475.156Z" transform="translate(-2852.164 -390.506)" fill="#181a1a"/>
        <path id="Path_941" data-name="Path 941" d="M2856.543,461.15l1.2.792-4.439,6.751.047.031,2.721.008-.756,1.15-2.838-.007-1.169-.768Z" transform="translate(-2833.225 -383.752)" fill="#181a1a"/>
        <path id="Path_942" data-name="Path 942" d="M2846.874,454.552l-4.634.2c-1.487.081-2.267.173-2.847.783a1.554,1.554,0,0,0,.17,2.29,1.579,1.579,0,0,0,2.386-.068l.994.945a2.859,2.859,0,0,1-4.225-.027,2.792,2.792,0,0,1-.344-4.052c.733-.772,1.673-1.039,4.15-1.115l2.735-.133.048-.05-3.107-2.952.849-.893,4.542,4.316Z" transform="translate(-2826.073 -377.643)" fill="#181a1a"/>
        <path id="Path_943" data-name="Path 943" d="M2831.889,445.635c-2.555,1.759-4.773,1.708-6.015-.091s-.5-3.893,2.048-5.654c2.568-1.774,4.778-1.734,6.029.076S2834.454,443.863,2831.889,445.635Zm-3.156-4.57c-1.952,1.348-2.583,2.734-1.856,3.787s2.247.953,4.2-.392,2.583-2.728,1.851-3.788S2830.693,439.711,2828.733,441.064Z" transform="translate(-2819.597 -371.936)" fill="#181a1a"/>
        <path id="Path_944" data-name="Path 944" d="M2820.129,419.694a1.376,1.376,0,0,0-.456,1.657c.25.75.809,1.191,1.329,1.012.46-.149.6-.555.531-1.359l-.113-1.159c-.129-1.34.259-2.146,1.215-2.466,1.226-.409,2.474.433,3.021,2.07.508,1.521.167,2.744-.959,3.365l-.62-1.21a1.39,1.39,0,0,0,.52-1.791c-.29-.865-.886-1.288-1.411-1.112-.424.141-.613.543-.541,1.244l.133,1.231c.142,1.364-.3,2.16-1.265,2.482-1.2.4-2.369-.414-2.881-1.945a2.48,2.48,0,0,1,.886-3.145Z" transform="translate(-2816.004 -360.78)" fill="#181a1a"/>
        <path id="Path_945" data-name="Path 945" d="M2819.032,408.3c-2.175.3-3.855-.8-4.125-2.768-.219-1.6.571-3.27,3.128-3.62l.489-.067.689,5.032a1.963,1.963,0,0,0,1.854-2.3,1.616,1.616,0,0,0-1.232-1.493l.057-1.336a2.835,2.835,0,0,1,2.316,2.687C2822.492,406.521,2821.23,408,2819.032,408.3Zm-1.356-4.964a1.765,1.765,0,0,0-1.633,2.031,1.919,1.919,0,0,0,2.136,1.646Z" transform="translate(-2814.144 -352.648)" fill="#181a1a"/>
        <path id="Path_946" data-name="Path 946" d="M2814.171,394.026l.028-1.345,1.135.024v-.074a1.86,1.86,0,0,1-1.2-1.84,5.8,5.8,0,0,1,.045-.59l1.331.028a3.229,3.229,0,0,0-.1.724,1.607,1.607,0,0,0,1.574,1.741l4.364.09-.028,1.391Z" transform="translate(-2813.756 -346.602)" fill="#181a1a"/>
        <path id="Path_947" data-name="Path 947" d="M2822.332,376.744l-.27,1.464-7.5,1.255.271-1.469,5.734-.78.013-.073-5.078-2.773.271-1.468Z" transform="translate(-2813.984 -337.544)" fill="#181a1a"/>
        <path id="Path_948" data-name="Path 948" d="M2813.907,366.171a.882.882,0,1,1,1.063-.577A.861.861,0,0,1,2813.907,366.171Zm1.89.436.435-1.322,6.792,2.236-.435,1.322Z" transform="translate(-2813.344 -333.125)" fill="#181a1a"/>
        <path id="Path_949" data-name="Path 949" d="M2828.154,357.982l-.616,1.248-6.413-3.163.591-1.2,1.043.515.04-.08a2.128,2.128,0,0,1-.195-2.447c.646-1.311,1.908-1.774,3.494-.991l4.079,2.012-.615,1.248-3.929-1.937a1.464,1.464,0,0,0-2.157.628,1.619,1.619,0,0,0,.87,2.287Z" transform="translate(-2817.419 -326.33)" fill="#181a1a"/>
        <path id="Path_950" data-name="Path 950" d="M2837.453,344.533l.341-1.248a1.939,1.939,0,0,0,1.919-.863,1.567,1.567,0,0,0-.155-2.425l-1.112-.859-.054.07a2.153,2.153,0,0,1-.319,2.37c-1.033,1.336-2.788,1.621-4.592.227s-2.1-3.23-1.046-4.6a2.17,2.17,0,0,1,2.256-.873l.063-.081-.917-.709.833-1.079,5.781,4.467c1.454,1.124,1.254,2.745.142,4.184A3.025,3.025,0,0,1,2837.453,344.533Zm-.832-6.822c-1.145-.885-2.327-.975-3.07-.014-.769.994-.312,2.146.774,2.985,1.112.859,2.262.931,3.021-.052C2838.081,339.679,2837.789,338.613,2836.621,337.711Z" transform="translate(-2823.022 -317.421)" fill="#181a1a"/>
        <path id="Path_951" data-name="Path 951" d="M2847.1,326.071a1.379,1.379,0,0,0-1.706.23c-.593.525-.78,1.212-.412,1.621.318.365.748.339,1.46-.043l1.023-.558c1.184-.644,2.079-.6,2.748.153.858.969.57,2.449-.723,3.594-1.2,1.065-2.462,1.23-3.476.436l.871-1.046a1.391,1.391,0,0,0,1.854-.224c.684-.6.839-1.321.472-1.735-.3-.335-.74-.352-1.358-.01l-1.082.6c-1.2.666-2.109.568-2.781-.191-.839-.948-.547-2.345.662-3.416a2.482,2.482,0,0,1,3.244-.416Z" transform="translate(-2829.142 -312.274)" fill="#181a1a"/>
        <path id="Path_952" data-name="Path 952" d="M2864.212,312.355l-1.293.688,1.848,3.468c.378.71.806.652,1.2.439a2.224,2.224,0,0,0,.4-.283l.762.9a2.66,2.66,0,0,1-.727.555,1.865,1.865,0,0,1-2.733-.7l-1.982-3.723-.923.492-.525-.985.924-.492-.8-1.51,1.228-.654.8,1.511,1.293-.689Z" transform="translate(-2837.902 -304.896)" fill="#181a1a"/>
        <path id="Path_953" data-name="Path 953" d="M2873.245,312.343c-.719-2.1.052-3.926,1.958-4.577s3.629.32,4.347,2.424-.055,3.913-1.962,4.563S2873.959,314.434,2873.245,312.343Zm4.974-1.7c-.442-1.294-1.4-2.2-2.637-1.775s-1.452,1.725-1.01,3.019,1.4,2.188,2.643,1.763S2878.662,311.939,2878.22,310.64Z" transform="translate(-2844.57 -303.335)" fill="#181a1a"/>
        <path id="Path_954" data-name="Path 954" d="M2892.026,303.347l-1.444.244.656,3.875c.134.794.558.873,1,.8a2.218,2.218,0,0,0,.471-.142l.44,1.091a2.67,2.67,0,0,1-.865.3,1.866,1.866,0,0,1-2.372-1.528l-.7-4.159-1.032.174-.186-1.1,1.032-.175-.285-1.687,1.371-.232.285,1.688,1.445-.244Z" transform="translate(-2852.43 -299.794)" fill="#181a1a"/>
        <path id="Path_955" data-name="Path 955" d="M2900.289,308.232c-.028-1.624,1.353-2,2.7-2.181,1.282-.171,1.8-.17,1.794-.677v-.032a1.188,1.188,0,0,0-1.38-1.256,1.667,1.667,0,0,0-1.644,1.023l-1.313-.275a2.888,2.888,0,0,1,2.919-1.874c1.135-.019,2.78.367,2.814,2.447l.081,4.745-1.359.023-.016-.977h-.056a2.234,2.234,0,0,1-2.093,1.17A2.17,2.17,0,0,1,2900.289,308.232Zm4.541-.635-.016-.921a5.454,5.454,0,0,1-1.715.411c-.8.12-1.459.4-1.447,1.141.012.688.585,1.033,1.371,1.019A1.677,1.677,0,0,0,2904.829,307.6Z" transform="translate(-2858.869 -300.922)" fill="#181a1a"/>
        <path id="Path_956" data-name="Path 956" d="M2917.433,308.3l-1.38-.166,1.135-9.454,1.381.165Z" transform="translate(-2867.123 -298.684)" fill="#181a1a"/>
        <path id="Path_957" data-name="Path 957" d="M2922.87,308.411a.93.93,0,1,1,.718,1.1A.932.932,0,0,1,2922.87,308.411Zm1.935-1.531-1.261-.266,1.284-6.666,1.5.316Z" transform="translate(-2870.682 -299.345)" fill="#181a1a"/>
      </g>
    </g>
  </g>
</svg>
